name rise30.8019peak61.5557fall86.2505.mot
datacolumns 19
datarows 32
range 16.71826900000000 16.76994300000000
endheader
time	ground_force1_vx	ground_force1_vy	ground_force1_vz	ground_force1_px	ground_force1_py	ground_force1_pz	ground_force2_vx	ground_force2_vy	ground_force2_vz	ground_force2_px	ground_force2_py	ground_force2_pz	ground_torque1_x	ground_torque1_y	ground_torque1_z	ground_torque2_x	ground_torque2_y	ground_torque2_z	
16.71826900000000	-47.42151700000000	760.50886900000000	42.48902000000000	0.02123600000000	0.00000000000000	0.09868200000000	0.00000000000000	0.00000000000000	0.00000000000000	0.00000000000000	0.00000000000000	0.00000000000000	0.00000000000000	12.07269000000000	0.00000000000000	0.00000000000000	0.00000000000000	0.00000000000000	
16.71994200000000	-47.45215000000000	758.37231199999997	42.28706400000000	0.02059500000000	0.00000000000000	0.09866000000000	0.00000000000000	0.00000000000000	0.00000000000000	0.00000000000000	0.00000000000000	0.00000000000000	0.00000000000000	11.99029200000000	0.00000000000000	0.00000000000000	0.00000000000000	0.00000000000000	
16.72160200000000	-47.50147500000000	756.19579999999996	42.07476100000000	0.01995100000000	0.00000000000000	0.09863400000000	0.00000000000000	0.00000000000000	0.00000000000000	0.00000000000000	0.00000000000000	0.00000000000000	0.00000000000000	11.91168500000000	0.00000000000000	0.00000000000000	0.00000000000000	0.00000000000000	
16.72327500000000	-47.57036700000000	753.98071900000002	41.85216500000000	0.01930400000000	0.00000000000000	0.09860500000000	0.00000000000000	0.00000000000000	0.00000000000000	0.00000000000000	0.00000000000000	0.00000000000000	0.00000000000000	11.83707000000000	0.00000000000000	0.00000000000000	0.00000000000000	0.00000000000000	
16.72494000000000	-47.65966100000000	751.72833100000003	41.61933100000000	0.01865600000000	0.00000000000000	0.09857200000000	0.00000000000000	0.00000000000000	0.00000000000000	0.00000000000000	0.00000000000000	0.00000000000000	0.00000000000000	11.76664000000000	0.00000000000000	0.00000000000000	0.00000000000000	0.00000000000000	
16.72660800000000	-47.77014000000000	749.43976699999996	41.37632000000000	0.01800500000000	0.00000000000000	0.09853500000000	0.00000000000000	0.00000000000000	0.00000000000000	0.00000000000000	0.00000000000000	0.00000000000000	0.00000000000000	11.70057800000000	0.00000000000000	0.00000000000000	0.00000000000000	0.00000000000000	
16.72827300000000	-47.90253900000000	747.11601599999995	41.12319400000000	0.01735300000000	0.00000000000000	0.09849400000000	0.00000000000000	0.00000000000000	0.00000000000000	0.00000000000000	0.00000000000000	0.00000000000000	0.00000000000000	11.63905600000000	0.00000000000000	0.00000000000000	0.00000000000000	0.00000000000000	
16.72994100000000	-48.05753700000000	744.75791600000002	40.86001600000000	0.01669800000000	0.00000000000000	0.09844900000000	-1.58681100000000	3.73892600000000	1.21642800000000	0.00000000000000	0.00000000000000	0.00000000000000	0.00000000000000	11.58223800000000	0.00000000000000	0.00000000000000	0.28602000000000	0.00000000000000	
16.73160200000000	-48.23575800000000	742.36614599999996	40.58685100000000	0.01604300000000	0.00000000000000	0.09840000000000	-2.56957400000000	7.06532000000000	2.02418100000000	0.00000000000000	0.00000000000000	0.00000000000000	0.00000000000000	11.53027600000000	0.00000000000000	0.00000000000000	0.48228700000000	0.00000000000000	
16.73327600000000	-48.43776300000000	739.94121700000005	40.30376400000000	0.01538700000000	0.00000000000000	0.09834600000000	-3.68820400000000	11.06501800000000	2.95487900000000	0.00000000000000	0.00000000000000	0.00000000000000	0.00000000000000	11.48330800000000	0.00000000000000	0.00000000000000	0.70967900000000	0.00000000000000	
16.73494200000000	-48.66405100000000	737.48346800000002	40.01082300000000	0.01473000000000	0.00000000000000	0.09828900000000	-4.91106700000000	15.69004500000000	3.98557800000000	0.00000000000000	0.00000000000000	0.00000000000000	0.00000000000000	11.44146500000000	0.00000000000000	0.00000000000000	0.96296800000000	0.00000000000000	
16.73660600000000	-48.91505400000000	734.99305700000002	39.70809200000000	0.01407200000000	0.00000000000000	0.09822700000000	-6.19810100000000	20.86206400000000	5.08627300000000	0.00000000000000	0.00000000000000	0.00000000000000	0.00000000000000	11.40486000000000	0.00000000000000	0.00000000000000	1.23520200000000	0.00000000000000	
16.73827600000000	-49.19113500000000	732.46995600000002	39.39563900000000	0.01341400000000	0.00000000000000	0.09816000000000	-7.50347200000000	26.47818900000000	6.22191400000000	0.27388500000000	0.00000000000000	-0.05540000000000	0.00000000000000	11.37359500000000	0.00000000000000	0.00000000000000	2.80656400000000	0.00000000000000	
16.73994000000000	-49.49258500000000	729.91394500000001	39.07352800000000	0.01275600000000	0.00000000000000	0.09809000000000	-8.77895800000000	32.41948900000000	7.35502300000000	0.27770000000000	0.00000000000000	-0.05645900000000	0.00000000000000	11.34775900000000	0.00000000000000	0.00000000000000	3.34987300000000	0.00000000000000	
16.74161000000000	-49.81962100000000	727.32461300000000	38.74182500000000	0.01209800000000	0.00000000000000	0.09801500000000	-9.97762100000000	38.56107400000000	8.44859100000000	0.28119400000000	0.00000000000000	-0.05742800000000	0.00000000000000	11.32742600000000	0.00000000000000	0.00000000000000	3.88370300000000	0.00000000000000	
16.74327400000000	-50.17238100000000	724.70134700000006	38.40059400000000	0.01144100000000	0.00000000000000	0.09793600000000	-11.05727300000000	44.78231500000000	9.46884200000000	0.28440900000000	0.00000000000000	-0.05832100000000	0.00000000000000	11.31265300000000	0.00000000000000	0.00000000000000	4.39216000000000	0.00000000000000	
16.74494300000000	-50.55092600000000	722.04333799999995	38.04990000000000	0.01078400000000	0.00000000000000	0.09785200000000	-11.98328700000000	50.97586700000000	10.38752100000000	0.28737700000000	0.00000000000000	-0.05914600000000	0.00000000000000	11.30348700000000	0.00000000000000	0.00000000000000	4.86159900000000	0.00000000000000	
16.74660700000000	-50.95523400000000	719.34957299999996	37.68980600000000	0.01012800000000	0.00000000000000	0.09776400000000	-12.73048200000000	57.05451900000000	11.18347300000000	0.29012600000000	0.00000000000000	-0.05991300000000	0.00000000000000	11.29995400000000	0.00000000000000	0.00000000000000	5.28142900000000	0.00000000000000	
16.74827300000000	-51.38519900000000	716.61883799999998	37.32037600000000	0.00947400000000	0.00000000000000	0.09767200000000	-13.28397700000000	62.95542500000000	11.84342000000000	0.29267800000000	0.00000000000000	-0.06062700000000	0.00000000000000	11.30206600000000	0.00000000000000	0.00000000000000	5.64456000000000	0.00000000000000	
16.74993600000000	-51.84063100000000	713.84971900000005	36.94167300000000	0.00882100000000	0.00000000000000	0.09757600000000	-13.63907700000000	68.64167700000000	12.36197800000000	0.29505300000000	0.00000000000000	-0.06129600000000	0.00000000000000	11.30982000000000	0.00000000000000	0.00000000000000	5.94749900000000	0.00000000000000	
16.75160100000000	-52.32125200000000	711.04060200000004	36.55375900000000	0.00817000000000	0.00000000000000	0.09747500000000	-13.80034500000000	74.10147499999999	12.74102600000000	0.29726700000000	0.00000000000000	-0.06192400000000	0.00000000000000	11.32319300000000	0.00000000000000	0.00000000000000	6.19013100000000	0.00000000000000	
16.75327300000000	-52.82669500000000	708.18967699999996	36.15670100000000	0.00752000000000	0.00000000000000	0.09737000000000	-13.78006500000000	79.34537400000001	12.98857300000000	0.29933600000000	0.00000000000000	-0.06251600000000	0.00000000000000	11.34214900000000	0.00000000000000	0.00000000000000	6.37525500000000	0.00000000000000	
16.75493900000000	-53.35650200000000	705.29494000000000	35.75056100000000	0.00687200000000	0.00000000000000	0.09726200000000	-13.59633100000000	84.40215200000000	13.11732200000000	0.30127000000000	0.00000000000000	-0.06307400000000	0.00000000000000	11.36663100000000	0.00000000000000	0.00000000000000	6.50796600000000	0.00000000000000	
16.75660900000000	-53.91012500000000	702.35419999999999	35.33540600000000	0.00622700000000	0.00000000000000	0.09714900000000	-13.27098400000000	89.31390200000000	13.14309000000000	0.30308000000000	0.00000000000000	-0.06360200000000	0.00000000000000	11.39656700000000	0.00000000000000	0.00000000000000	6.59493900000000	0.00000000000000	
16.75826900000000	-54.48692300000000	699.36508100000003	34.91130500000000	0.00558300000000	0.00000000000000	0.09703200000000	-12.82759500000000	94.13086800000001	13.08324200000000	0.30477600000000	0.00000000000000	-0.06410400000000	0.00000000000000	11.43186400000000	0.00000000000000	0.00000000000000	6.64371600000000	0.00000000000000	
16.75994000000000	-55.08616100000000	696.32503399999996	34.47832800000000	0.00494300000000	0.00000000000000	0.09691100000000	-12.28964900000000	98.90650500000000	12.95526100000000	0.30636500000000	0.00000000000000	-0.06458000000000	0.00000000000000	11.47241500000000	0.00000000000000	0.00000000000000	6.66203600000000	0.00000000000000	
16.76160400000000	-55.70701200000000	693.23133700000005	34.03654800000000	0.00430400000000	0.00000000000000	0.09678700000000	-11.67903600000000	103.69310500000000	12.77555800000000	0.30785400000000	0.00000000000000	-0.06503500000000	0.00000000000000	11.51809200000000	0.00000000000000	0.00000000000000	6.65726600000000	0.00000000000000	
16.76327600000000	-56.34855300000000	690.08111099999996	33.58604400000000	0.00366800000000	0.00000000000000	0.09665800000000	-11.01492100000000	108.53825300000000	12.55855400000000	0.30925000000000	0.00000000000000	-0.06546800000000	0.00000000000000	11.56875200000000	0.00000000000000	0.00000000000000	6.63595200000000	0.00000000000000	
16.76494400000000	-57.00976900000000	686.87132299999996	33.12689600000000	0.00303500000000	0.00000000000000	0.09652700000000	-10.31301400000000	113.48222100000000	12.31607200000000	0.31055700000000	0.00000000000000	-0.06588300000000	0.00000000000000	11.62423000000000	0.00000000000000	0.00000000000000	6.60351100000000	0.00000000000000	
16.76661000000000	-57.68955000000000	683.59879999999998	32.65919200000000	0.00240400000000	0.00000000000000	0.09639100000000	-9.58521400000000	118.55634600000000	12.05702900000000	0.31178000000000	0.00000000000000	-0.06628000000000	0.00000000000000	11.68434600000000	0.00000000000000	0.00000000000000	6.56406300000000	0.00000000000000	
16.76827000000000	-58.38669200000000	680.26023699999996	32.18302500000000	0.00177600000000	0.00000000000000	0.09625300000000	-8.83960600000000	123.78234000000000	11.78739000000000	0.31292300000000	0.00000000000000	-0.06666100000000	0.00000000000000	11.74890200000000	0.00000000000000	0.00000000000000	6.52038700000000	0.00000000000000	
16.76994300000000	-59.09989800000000	676.85221000000001	31.69849300000000	0.00115000000000	0.00000000000000	0.09611100000000	-8.08073000000000	129.17240699999999	11.51035400000000	0.31399000000000	0.00000000000000	-0.06702600000000	0.00000000000000	11.81768200000000	0.00000000000000	0.00000000000000	6.47398300000000	0.00000000000000	
